<?xml version="1.0" encoding="UTF-8"?>
<svg width="63px" height="46px" viewBox="0 0 63 46" version="1.1" xmlns="http://www.w3.org/2000/svg" xmlns:xlink="http://www.w3.org/1999/xlink">
    <!-- Generator: Sketch 52.2 (67145) - http://www.bohemiancoding.com/sketch -->
    <title>联通 copy</title>
    <desc>Created with Sketch.</desc>
    <g id="页面-1" stroke="none" stroke-width="1" fill="none" fill-rule="evenodd">
        <g id="餐厅管理-餐厅列表" transform="translate(-24.000000, -50.000000)" fill="#FFFFFF" fill-rule="nonzero">
            <g id="导航栏">
                <g id="联通-copy" transform="translate(24.000000, 50.000000)">
                    <path d="M44.8551511,43.6780659 C43.3460255,45.1647373 41.2987806,46 39.1640466,46 C37.0293126,46 34.9820677,45.1647373 33.4729421,43.6780659 C32.2379352,42.4648885 31.5109453,41.7447441 31.5109453,41.7447441 L29.5504083,43.6780659 C26.3903184,46.6783667 21.3719097,46.633541 18.2676181,43.5772852 C15.1633264,40.5210294 15.1171586,35.5796481 18.1638199,32.4676738 C19.0397113,31.6109751 27.7811077,23.000865 27.7811077,23.000865 L18.1638199,13.5340561 C16.1298017,11.5312557 15.3354272,8.61211039 16.0799295,5.87623408 C16.8244318,3.14035776 18.9947033,1.00339511 21.7732237,0.270319271 C24.5517442,-0.462756564 27.5163902,0.319426084 29.5504083,2.32222658 L31.5109453,4.25411109 L33.4729421,2.32366403 C36.6267521,-0.712876219 41.6750584,-0.684531625 44.7934948,2.38722524 C47.9119312,5.45898211 47.9387753,10.4298186 44.8536913,13.5340561 L35.2393231,23.000865 L44.8566109,32.4676738 C46.3666325,33.9541285 47.2149873,35.9704287 47.2149873,38.0728699 C47.2149873,40.1753111 46.3666325,42.1916112 44.8566109,43.6780659 L44.8551511,43.6780659 Z M31.4700704,26.6346477 C31.4700704,26.6346477 23.0337762,35.0219586 21.8951174,36.1417042 C21.1944242,36.8319 20.9209115,37.8377454 21.1776088,38.7803481 C21.4343061,39.7229507 22.1822151,40.459107 23.1396056,40.7115138 C24.0969961,40.9639207 25.1184177,40.6942315 25.8191109,40.0040357 C26.8599619,38.9762847 27.7811077,38.0707138 27.7811077,38.0707138 L24.8118358,35.1498884 L28.5431332,31.4772956 L31.5109453,34.4009958 L34.4772976,31.4772956 L38.2071353,35.1498884 L35.2422428,38.0707138 L37.2027798,40.0040357 C38.2918497,41.0351824 40.0187454,41.0183701 41.086896,39.9662216 C42.1550467,38.9140731 42.1714782,37.2136754 41.1238537,36.1417042 L31.4700704,26.6346477 Z M6.58745496,21.0704179 C6.04732193,21.6022611 5.77725539,22.3008443 5.77725539,23.000865 C5.77725539,23.7008856 6.04732193,24.3980315 6.58745496,24.931312 C7.67230104,25.9966081 9.42806224,25.9966081 10.5129083,24.931312 L12.4734453,23.000865 L10.5129083,21.0704179 C9.99218952,20.5576278 9.28590473,20.26954 8.54945173,20.26954 C7.81299874,20.26954 7.10671394,20.5576278 6.58599514,21.0704179 L6.58745496,21.0704179 Z M41.1238537,9.86002583 C42.2070315,8.79386936 42.2073583,7.06496641 41.1245836,5.99841301 C40.0418089,4.93185961 38.2859575,4.93153784 37.2027798,5.9976943 C36.1575493,7.02400791 35.2422428,7.92814136 35.2422428,7.92814136 L38.2071353,10.8518415 L34.4772976,14.5215595 L31.5109453,11.6007342 L28.5431332,14.5201221 L24.8118358,10.8504041 L27.7796479,7.92670395 L25.8191109,5.99625689 C24.7305246,4.96083806 23.0001047,4.97525992 21.9294744,6.02867436 C20.858844,7.0820888 20.8429099,8.78593944 21.8936575,9.85858842 C23.0337762,10.9783339 31.4700704,19.3656449 31.4700704,19.3656449 L41.1238537,9.85858842 L41.1238537,9.86002583 Z M52.4286923,21.0704179 L50.4681553,23.000865 L52.4286923,24.931312 C53.5132062,25.997399 55.2696318,25.997399 56.3541457,24.931312 C56.87574,24.4198856 57.1689539,23.7249433 57.1689539,23.0001463 C57.1689539,22.2753493 56.87574,21.580407 56.3541457,21.0689805 C55.833617,20.5558378 55.1272609,20.2675065 54.390689,20.2675065 C53.6541172,20.2675065 52.9477611,20.5558378 52.4272324,21.0689805 L52.4286923,21.0704179 Z M2.85761733,28.6053423 C1.34524153,27.1202052 0.496712861,25.1025756 0.50000957,22.9994276 C0.498220687,19.7921627 2.4596486,16.8999618 5.46894146,15.6725463 C8.47823432,14.4451308 11.9421676,15.1244622 14.2442058,17.3935128 C15.1449141,18.2847095 16.2047427,19.3268347 16.2047427,19.3268347 L19.1696352,16.4074468 L22.9009327,20.0771648 L19.9316608,23.000865 L22.9009327,25.9216903 L19.1696352,29.5928458 L16.2047427,26.6720204 L14.2442058,28.6053423 C11.0996968,31.7009534 6.00212625,31.7009534 2.85761733,28.6053423 Z M60.0839833,28.6053423 C56.9394744,31.7009534 51.8419037,31.7009534 48.6973948,28.6053423 L46.7368578,26.6720204 L43.7690458,29.5928458 L40.0392081,25.9216903 L43.0099399,23.000865 L40.040668,20.0786023 L43.7705056,16.4074468 L46.7383177,19.3268347 L48.6988546,17.3963876 C50.7254576,15.3601689 53.7064258,14.5523247 56.5057753,15.2807073 C59.3051249,16.0090899 61.4916447,18.1614994 62.2320985,20.9176983 C62.9725523,23.6738972 62.1528806,26.6093211 60.0854431,28.6053423 L60.0839833,28.6053423 Z" id="形状"></path>
                </g>
            </g>
        </g>
    </g>
</svg>