<?xml version="1.0" standalone="no"?><!DOCTYPE svg PUBLIC "-//W3C//DTD SVG 1.1//EN" "http://www.w3.org/Graphics/SVG/1.1/DTD/svg11.dtd"><svg t="1586748221837" class="icon" viewBox="0 0 1024 1024" version="1.1" xmlns="http://www.w3.org/2000/svg" p-id="1141" xmlns:xlink="http://www.w3.org/1999/xlink" width="128" height="128"><defs><style type="text/css"></style></defs><path d="M512 38.4c-193.536 0-351.232 157.696-351.232 351.232 0 111.616 51.2 213.504 140.288 280.576 2.048 1.536 5.12 2.56 7.68 2.56 4.096 0 7.68-1.536 10.24-5.12 4.096-5.632 3.072-13.824-2.56-17.92a323.4816 323.4816 0 0 1-130.048-260.096c0-179.712 145.92-325.632 325.632-325.632s325.632 145.92 325.632 325.632c0 102.912-47.104 197.632-129.536 260.096-5.632 4.096-6.656 12.288-2.56 17.92 4.096 5.632 12.288 6.656 17.92 2.56a349.44 349.44 0 0 0 139.776-280.064c0-194.048-157.696-351.744-351.232-351.744z" fill="#d81e06" p-id="1142"></path><path d="M512 129.536c-143.36 0-260.096 116.736-260.096 260.096 0 72.192 30.208 141.312 82.944 190.464 5.12 5.12 13.312 4.608 17.92-0.512s4.608-13.312-0.512-17.92a235.9808 235.9808 0 0 1-74.752-172.032c0-129.536 105.472-234.496 234.496-234.496 129.536 0 234.496 105.472 234.496 234.496 0 65.024-27.136 127.488-74.752 172.032-5.12 4.608-5.632 12.8-0.512 17.92 2.56 2.56 6.144 4.096 9.216 4.096s6.144-1.024 8.704-3.584a261.632 261.632 0 0 0 82.944-190.464c0-143.36-116.736-260.096-260.096-260.096z" fill="#d81e06" p-id="1143"></path><path d="M381.44 492.032c2.56 0 5.12-0.512 7.168-2.048 5.632-4.096 7.168-12.288 3.072-17.92a142.848 142.848 0 0 1-25.6-82.432c0-80.384 65.536-145.92 145.92-145.92s145.92 65.536 145.92 145.92c0 29.184-8.704 57.344-25.088 81.408-4.096 5.632-2.56 13.824 3.584 17.92 5.632 4.096 13.824 2.56 17.92-3.584 18.944-28.16 29.184-61.44 29.184-95.744 0-94.208-76.8-171.52-171.52-171.52s-171.52 76.8-171.52 171.52c0 34.816 10.24 68.608 30.208 96.768 2.56 3.584 6.656 5.632 10.752 5.632z" fill="#d81e06" p-id="1144"></path><path d="M778.752 974.336c0-1.536 0.512-3.072 0-4.608v-1.536L568.832 445.44c14.336-14.336 23.04-34.304 23.04-55.808 0-44.032-35.84-79.872-79.872-79.872-44.032 0-79.872 35.84-79.872 79.872 0 22.016 8.704 41.984 23.552 56.32l-209.92 522.24v1.536c-0.512 1.536 0 3.072 0 4.608s0 3.072 1.024 4.608v1.024c1.536 2.048 3.584 3.584 5.632 4.608l0.512 0.512c1.536 0.512 3.072 1.024 4.608 1.024 2.56 0 5.12-1.024 7.168-2.048L512 816.128l247.808 166.912c2.048 1.536 4.608 2.048 7.168 2.048 1.536 0 3.072-0.512 4.608-1.024l0.512-0.512c2.048-1.024 4.096-2.56 5.632-4.608 0.512-0.512 0-1.024 0-1.024 1.024-0.512 1.024-2.048 1.024-3.584z m-339.968-417.28l51.712 38.4L394.752 665.6l44.032-108.544zM512 610.816l123.904 91.136L512 785.408l-123.904-83.456L512 610.816z m117.76 55.296l-96.256-70.656 52.224-38.4 44.032 109.056zM512 335.36a54.272 54.272 0 0 1 0 108.544c-29.696 0-54.272-24.576-54.272-54.272S482.304 335.36 512 335.36z m0 134.144c12.8 0 24.576-3.072 35.328-8.704l28.672 71.168-64 47.104-63.488-46.592 28.672-71.68c10.752 5.12 22.528 8.704 34.816 8.704z m-226.816 469.504l87.04-217.088 117.248 78.848-204.288 138.24z m367.104-217.088l87.552 217.088-204.8-137.728 117.248-79.36z" fill="#d81e06" p-id="1145"></path></svg>